<svg width="210" height="220" viewBox="0 0 210 220" fill="none" xmlns="http://www.w3.org/2000/svg">
<path d="M175 51.3334H35C32.3478 51.3334 29.8043 52.3635 27.9289 54.1972C26.0536 56.0309 25 58.5179 25 61.1111V158.889C25 161.482 26.0536 163.969 27.9289 165.803C29.8043 167.637 32.3478 168.667 35 168.667H175C177.652 168.667 180.196 167.637 182.071 165.803C183.946 163.969 185 161.482 185 158.889V61.1111C185 58.5179 183.946 56.0309 182.071 54.1972C180.196 52.3635 177.652 51.3334 175 51.3334ZM175 158.889H35V61.1111H175V158.889Z" fill="#DA5656"/>
<path d="M60 90.4444H150C151.326 90.4444 152.598 89.9293 153.536 89.0125C154.473 88.0957 155 86.8521 155 85.5555C155 84.2589 154.473 83.0154 153.536 82.0986C152.598 81.1817 151.326 80.6666 150 80.6666H60C58.6739 80.6666 57.4021 81.1817 56.4645 82.0986C55.5268 83.0154 55 84.2589 55 85.5555C55 86.8521 55.5268 88.0957 56.4645 89.0125C57.4021 89.9293 58.6739 90.4444 60 90.4444Z" fill="#DA5656"/>
<path d="M60 110H150C151.326 110 152.598 109.485 153.536 108.568C154.473 107.651 155 106.408 155 105.111C155 103.814 154.473 102.571 153.536 101.654C152.598 100.737 151.326 100.222 150 100.222H60C58.6739 100.222 57.4021 100.737 56.4645 101.654C55.5268 102.571 55 103.814 55 105.111C55 106.408 55.5268 107.651 56.4645 108.568C57.4021 109.485 58.6739 110 60 110Z" fill="#DA5656"/>
<path d="M60 129.556H110C111.326 129.556 112.598 129.04 113.536 128.124C114.473 127.207 115 125.963 115 124.667C115 123.37 114.473 122.127 113.536 121.21C112.598 120.293 111.326 119.778 110 119.778H60C58.6739 119.778 57.4021 120.293 56.4645 121.21C55.5268 122.127 55 123.37 55 124.667C55 125.963 55.5268 127.207 56.4645 128.124C57.4021 129.04 58.6739 129.556 60 129.556Z" fill="#DA5656"/>
</svg>
