<svg width="157" height="169" viewBox="0 0 157 169" fill="none" xmlns="http://www.w3.org/2000/svg">
<path d="M79.4659 75.7529C79.3511 75.5951 79.2045 75.4675 79.0372 75.3797C78.8698 75.292 78.6861 75.2463 78.5 75.2463C78.3138 75.2463 78.1301 75.292 77.9627 75.3797C77.7954 75.4675 77.6488 75.5951 77.534 75.7529L60.3622 99.139C60.2206 99.3336 60.1328 99.5671 60.1087 99.8129C60.0846 100.059 60.1253 100.307 60.2261 100.529C60.3268 100.751 60.4836 100.938 60.6785 101.069C60.8734 101.199 61.0985 101.268 61.3281 101.268H72.6585V141.273C72.6585 142 73.2104 142.594 73.885 142.594H83.0842C83.7589 142.594 84.3108 142 84.3108 141.273V101.284H95.6718C96.6991 101.284 97.2664 100.014 96.6377 99.1555L79.4659 75.7529Z" fill="#DA5656"/>
<path d="M124.404 60.5198C117.382 40.5831 99.4896 26.4062 78.5307 26.4062C57.5718 26.4062 39.6793 40.5666 32.6572 60.5033C19.5177 64.2167 9.8125 77.1063 9.8125 92.4219C9.8125 110.659 23.5347 125.43 40.4612 125.43H46.6094C47.284 125.43 47.8359 124.836 47.8359 124.109V114.207C47.8359 113.481 47.284 112.887 46.6094 112.887H40.4612C35.2943 112.887 30.4341 110.675 26.8157 106.665C23.2127 102.671 21.2962 97.2905 21.4648 91.7122C21.6028 87.3552 22.9827 83.2622 25.4818 79.8129C28.0423 76.2976 31.63 73.7395 35.6163 72.6007L41.4272 70.9668L43.5583 64.9264C44.8769 61.1635 46.7167 57.6481 49.0318 54.4629C51.3174 51.3058 54.0248 48.5306 57.0658 46.2274C63.3673 41.4578 70.788 38.9327 78.5307 38.9327C86.2733 38.9327 93.694 41.4578 99.9955 46.2274C103.047 48.538 105.745 51.3106 108.029 54.4629C110.345 57.6481 112.184 61.18 113.503 64.9264L115.619 70.9503L121.414 72.6007C129.724 75.0103 135.535 83.1467 135.535 92.4219C135.535 97.8847 133.557 103.034 129.97 106.896C128.21 108.801 126.117 110.311 123.812 111.34C121.506 112.368 119.034 112.894 116.539 112.887H110.391C109.716 112.887 109.164 113.481 109.164 114.207V124.109C109.164 124.836 109.716 125.43 110.391 125.43H116.539C133.465 125.43 147.188 110.659 147.188 92.4219C147.188 77.1228 137.513 64.2497 124.404 60.5198Z" fill="#DA5656"/>
</svg>
